<svg xmlns="http://www.w3.org/2000/svg" viewBox="0 0 99 144" fill="#E8E8E8" role="img" aria-label="EVRL">
<rect x="0" y="0" width="9" height="9"></rect><rect x="9" y="0" width="9" height="9"></rect><rect x="18" y="0" width="9" height="9"></rect><rect x="27" y="0" width="9" height="9"></rect><rect x="36" y="0" width="9" height="9"></rect><rect x="0" y="9" width="9" height="9"></rect><rect x="0" y="18" width="9" height="9"></rect><rect x="0" y="27" width="9" height="9"></rect><rect x="9" y="27" width="9" height="9"></rect><rect x="18" y="27" width="9" height="9"></rect><rect x="27" y="27" width="9" height="9"></rect><rect x="0" y="36" width="9" height="9"></rect><rect x="0" y="45" width="9" height="9"></rect><rect x="0" y="54" width="9" height="9"></rect><rect x="9" y="54" width="9" height="9"></rect><rect x="18" y="54" width="9" height="9"></rect><rect x="27" y="54" width="9" height="9"></rect><rect x="36" y="54" width="9" height="9"></rect><rect x="54" y="0" width="9" height="9"></rect><rect x="90" y="0" width="9" height="9"></rect><rect x="54" y="9" width="9" height="9"></rect><rect x="90" y="9" width="9" height="9"></rect><rect x="54" y="18" width="9" height="9"></rect><rect x="90" y="18" width="9" height="9"></rect><rect x="54" y="27" width="9" height="9"></rect><rect x="90" y="27" width="9" height="9"></rect><rect x="54" y="36" width="9" height="9"></rect><rect x="90" y="36" width="9" height="9"></rect><rect x="63" y="45" width="9" height="9"></rect><rect x="81" y="45" width="9" height="9"></rect><rect x="72" y="54" width="9" height="9"></rect><rect x="0" y="81" width="9" height="9"></rect><rect x="9" y="81" width="9" height="9"></rect><rect x="18" y="81" width="9" height="9"></rect><rect x="27" y="81" width="9" height="9"></rect><rect x="0" y="90" width="9" height="9"></rect><rect x="36" y="90" width="9" height="9"></rect><rect x="0" y="99" width="9" height="9"></rect><rect x="36" y="99" width="9" height="9"></rect><rect x="0" y="108" width="9" height="9"></rect><rect x="9" y="108" width="9" height="9"></rect><rect x="18" y="108" width="9" height="9"></rect><rect x="27" y="108" width="9" height="9"></rect><rect x="0" y="117" width="9" height="9"></rect><rect x="18" y="117" width="9" height="9"></rect><rect x="0" y="126" width="9" height="9"></rect><rect x="27" y="126" width="9" height="9"></rect><rect x="0" y="135" width="9" height="9"></rect><rect x="36" y="135" width="9" height="9"></rect><rect x="54" y="81" width="9" height="9"></rect><rect x="54" y="90" width="9" height="9"></rect><rect x="54" y="99" width="9" height="9"></rect><rect x="54" y="108" width="9" height="9"></rect><rect x="54" y="117" width="9" height="9"></rect><rect x="54" y="126" width="9" height="9"></rect><rect x="54" y="135" width="9" height="9"></rect><rect x="63" y="135" width="9" height="9"></rect><rect x="72" y="135" width="9" height="9"></rect><rect x="81" y="135" width="9" height="9"></rect><rect x="90" y="135" width="9" height="9"></rect>
</svg>